<svg xmlns="http://www.w3.org/2000/svg" viewBox="0 0 32 32">
  <rect width="32" height="32" rx="6" fill="#0B1D3A"/>
  <path d="M9 7h8a1 1 0 0 1 .7.3l4 4a1 1 0 0 1 .3.7V24a1 1 0 0 1-1 1H9a1 1 0 0 1-1-1V8a1 1 0 0 1 1-1z" fill="#00ABAB" opacity=".2"/>
  <path d="M10 8h7l4 4v11a1 1 0 0 1-1 1H10a1 1 0 0 1-1-1V9a1 1 0 0 1 1-1z" fill="none" stroke="#00ABAB" stroke-width="1.5"/>
  <path d="M17 8v4h4" fill="none" stroke="#00ABAB" stroke-width="1.5" stroke-linecap="round"/>
  <rect x="12" y="15" width="6" height="1.2" rx=".6" fill="#FFC72C"/>
  <rect x="12" y="18" width="4.5" height="1.2" rx=".6" fill="#FFC72C" opacity=".6"/>
  <rect x="12" y="21" width="5" height="1.2" rx=".6" fill="#FFC72C" opacity=".35"/>
</svg>
